<svg xmlns="http://www.w3.org/2000/svg" xmlns:svgjs="http://svgjs.com/svgjs" xmlns:xlink="http://www.w3.org/1999/xlink" width="288" height="288"><svg xmlns="http://www.w3.org/2000/svg" width="288" height="288" data-name="Layer 1" viewBox="0 0 512 512"><path fill="#43dde6" d="M198.838,57.046c-78.185,0-141.792,63.607-141.792,141.792s63.607,141.791,141.792,141.791a141.2,141.2,0,0,0,92.894-34.754L318.561,332.7,332.7,318.561l-26.829-26.829a141.19,141.19,0,0,0,34.755-92.894C340.629,120.653,277.021,57.046,198.838,57.046Zm0,263.583A121.792,121.792,0,1,1,320.629,198.838,121.93,121.93,0,0,1,198.838,320.629Z" class="color00efd1 svgShape"/><path fill="#fc5185" d="M366.442,313.122a30.036,30.036,0,0,0-42.427,0l-10.894,10.894a30.037,30.037,0,0,0,0,42.427L398.7,452.026a10,10,0,0,0,14.142,0l39.178-39.178a10,10,0,0,0,0-14.143Zm39.334,117.69L327.265,352.3a10.011,10.011,0,0,1,0-14.142l10.894-10.894a10.008,10.008,0,0,1,14.141,0l78.512,78.512Z" class="color00acea svgShape"/></svg></svg>